# xmcd CD database file
#
# Track frame offsets:
#	150
#	20650
#	40972
#	60717
#	77727
#	92947
#	111150
#	133662
#	149227
#	165165
#
# Disc length: 2470 seconds
#
# Revision: 6
# Processed by: cddbd v1.5.2PL0 Copyright (c) Steve Scherf et al.
# Submitted via: CDex 1.70beta3
#
DISCID=8b09a40a
DTITLE=松任谷由実 - ALARM a la mode
DYEAR=1986
DGENRE=JPop
TTITLE0=Holiday in Acapulco
TTITLE1=ジェラシーと云う名の悪夢
TTITLE2=パジャマにレインコート
TTITLE3=白い服、白い靴
TTITLE4=土曜日は大キライ
TTITLE5=ホライズンを追いかけて -- L'aventure au desert
TTITLE6=Autumn Park
TTITLE7=20 minutes
TTITLE8=3-Dのクリスマスカード
TTITLE9=さよならハリケーン
EXTD=YEAR: 1986
EXTT0=
EXTT1=
EXTT2=
EXTT3=
EXTT4=
EXTT5=
EXTT6=
EXTT7=
EXTT8=
EXTT9=
PLAYORDER=
